<svg version="1.2" overflow="visible" preserveAspectRatio="none" viewBox="0 0 84 76.0199966430664" xmlns="http://www.w3.org/2000/svg" width="25" height="22"><g transform="translate(1, 1)"><defs><style>.cls-1_1540945037354{fill:#de3518;}</style></defs><g data-name="Layer 2" id="Layer_2_1540945037354"><g id="icon_1540945037354"><path d="M38.3,9a5.05,5.05,0,0,1,3.78-1.46q5,0,5,5.4a6.57,6.57,0,0,1-1,3.41,20.26,20.26,0,0,1-3.84,4.18,14.71,14.71,0,0,0-4,5.23,19.27,19.27,0,0,0-1.08,7.12h8.17l.13-1.95a8.72,8.72,0,0,1,2.77-5.46L50.86,23a21.12,21.12,0,0,0,4.24-5.35,11.26,11.26,0,0,0,1.21-5.13q0-6-3.73-9.25T42.08,0Q35.38,0,31.5,3.45T27.56,13h9.25A5.74,5.74,0,0,1,38.3,9Z" class="cls-1_1540945037354" vector-effect="non-scaling-stroke" style="fill: rgb(221, 56, 38);"/><path d="M41.44,37.7a5.19,5.19,0,0,0-3.72,1.38,5,5,0,0,0,0,7,5.19,5.19,0,0,0,3.75,1.36,5.18,5.18,0,0,0,3.75-1.36,4.61,4.61,0,0,0,1.42-3.47,4.66,4.66,0,0,0-1.45-3.52A5.19,5.19,0,0,0,41.44,37.7Z" class="cls-1_1540945037354" vector-effect="non-scaling-stroke" style="fill: rgb(221, 56, 38);"/><path d="M61.28,11.25c0,.41,0,.84,0,1.27a16.26,16.26,0,0,1-1,5.68A18.61,18.61,0,0,1,56.39,55H39.17a3.48,3.48,0,0,0-1.75.47L23.89,63.3,25,59a3.49,3.49,0,0,0-2.75-4.32,18.59,18.59,0,0,1,.26-36.62v-.18h0l0-4.94c0-.68,0-1.35.11-2a25.61,25.61,0,0,0-5.32,49.68l-2.34,9A3.5,3.5,0,0,0,18.4,74a3.43,3.43,0,0,0,1.75-.47L40.11,62H56.39a25.61,25.61,0,0,0,4.89-50.75Z" class="cls-1_1540945037354" vector-effect="non-scaling-stroke" style="fill: rgb(221, 56, 38);"/></g></g></g></svg>